<?xml version="1.0" standalone="no"?>
<!DOCTYPE svg PUBLIC "-//W3C//DTD SVG 20010904//EN"
 "http://www.w3.org/TR/2001/REC-SVG-20010904/DTD/svg10.dtd">
<svg version="1.0" xmlns="http://www.w3.org/2000/svg"
 width="1024.000000pt" height="1024.000000pt" viewBox="0 0 1024.000000 1024.000000"
 preserveAspectRatio="xMidYMid meet">
<metadata>
Created by potrace 1.14, written by Peter Selinger 2001-2017
</metadata>
<g transform="translate(0.000000,1024.000000) scale(0.100000,-0.100000)"
fill="#000000" stroke="none">
<path d="M4848 10235 c-2 -1 -48 -5 -103 -9 -115 -8 -172 -13 -235 -22 -25 -3
-58 -8 -75 -9 -58 -7 -271 -44 -345 -60 -41 -9 -86 -18 -100 -21 -151 -29
-679 -190 -705 -215 -5 -5 -15 -9 -23 -9 -14 0 -72 -23 -206 -84 -825 -370
-1502 -910 -2036 -1621 -89 -119 -208 -291 -236 -340 -6 -11 -36 -60 -66 -110
-30 -49 -74 -126 -97 -170 -24 -44 -48 -86 -53 -92 -6 -7 -8 -13 -4 -13 3 0
-4 -17 -17 -37 -26 -43 -130 -270 -177 -389 -137 -342 -246 -730 -300 -1067
-25 -163 -28 -184 -35 -253 -4 -32 -8 -70 -10 -83 -26 -156 -26 -782 0 -1016
1 -16 6 -55 9 -85 3 -30 8 -64 10 -75 2 -11 7 -47 11 -80 4 -32 8 -67 10 -76
6 -28 17 -93 20 -114 7 -47 38 -189 66 -300 17 -66 33 -128 35 -137 2 -10 6
-26 8 -35 10 -42 117 -356 151 -443 127 -322 218 -503 460 -908 68 -113 283
-404 409 -552 181 -213 435 -464 626 -621 36 -29 67 -56 70 -59 33 -38 519
-376 580 -403 8 -4 31 -17 50 -29 372 -229 962 -465 1410 -564 124 -27 305
-62 385 -74 44 -6 91 -13 105 -15 14 -3 54 -7 90 -11 36 -3 72 -8 82 -9 136
-26 787 -26 1016 0 20 2 60 7 87 10 188 20 413 60 615 109 57 14 117 30 134
35 17 6 42 12 56 15 42 7 349 111 470 159 203 80 321 135 520 239 129 68 152
81 263 149 48 30 102 63 120 74 105 64 449 317 497 365 3 3 34 30 70 60 164
139 330 305 540 539 169 189 404 521 567 801 49 85 203 383 203 394 0 3 18 44
40 91 103 222 265 710 296 895 3 14 9 39 14 55 5 17 11 44 14 60 2 17 11 66
20 110 8 44 17 94 20 110 2 17 8 50 11 74 4 24 9 58 10 75 9 80 16 143 20 161
26 130 26 854 1 1015 -2 14 -7 54 -11 90 -7 77 -12 115 -19 155 -3 17 -8 48
-11 70 -57 386 -175 788 -366 1245 -40 95 -223 451 -289 560 -283 471 -662
922 -1057 1257 -26 23 -61 53 -78 68 -29 26 -321 245 -380 286 -57 39 -227
149 -231 149 -2 0 -32 17 -66 38 -35 21 -112 65 -173 97 -60 32 -117 62 -125
67 -93 51 -398 180 -580 245 -240 85 -587 178 -780 208 -19 3 -46 8 -60 10
-46 10 -65 13 -120 20 -30 4 -62 9 -70 10 -31 6 -107 14 -185 21 -44 3 -91 8
-105 11 -28 4 -657 13 -662 8z"/>
</g>
</svg>
